<svg width="15" height="15" viewBox="0 0 15 15" fill="none" xmlns="http://www.w3.org/2000/svg">
	<path d="M5 1.875H2.5C2.33424 1.875 2.17527 1.94085 2.05806 2.05806C1.94085 2.17527 1.875 2.33424 1.875 2.5V5M5 13.125H2.5C2.33424 13.125 2.17527 13.0592 2.05806 12.9419C1.94085 12.8247 1.875 12.6658 1.875 12.5V10M10 13.125H12.5C12.6658 13.125 12.8247 13.0592 12.9419 12.9419C13.0592 12.8247 13.125 12.6658 13.125 12.5V10M10 1.875H12.5C12.6658 1.875 12.8247 1.94085 12.9419 2.05806C13.0592 2.17527 13.125 2.33424 13.125 2.5V5" stroke="white" stroke-width="1.5" stroke-linecap="round" stroke-linejoin="round"/>
	<path d="M10 4.375H5C4.65482 4.375 4.375 4.65482 4.375 5V10C4.375 10.3452 4.65482 10.625 5 10.625H10C10.3452 10.625 10.625 10.3452 10.625 10V5C10.625 4.65482 10.3452 4.375 10 4.375Z" stroke="white" stroke-width="1.5"/>
</svg>
