<svg width="15" height="15" viewBox="0 0 15 15" fill="none" xmlns="http://www.w3.org/2000/svg">
	<path fill-rule="evenodd" clip-rule="evenodd" d="M0.15625 5.62507C0.15625 4.50619 0.600724 3.43313 1.39189 2.64196C2.18306 1.85079 3.25612 1.40632 4.375 1.40632H10.625C11.7439 1.40632 12.8169 1.85079 13.6081 2.64196C14.3993 3.43313 14.8438 4.50619 14.8438 5.62507V9.37507C14.8438 10.494 14.3993 11.567 13.6081 12.3582C12.8169 13.1493 11.7439 13.5938 10.625 13.5938H4.375C3.25612 13.5938 2.18306 13.1493 1.39189 12.3582C0.600724 11.567 0.15625 10.494 0.15625 9.37507V5.62507ZM3.75 4.84382C3.87432 4.84382 3.99355 4.8932 4.08146 4.98111C4.16936 5.06902 4.21875 5.18825 4.21875 5.31257V7.03132H6.09375V5.31257C6.09375 5.18825 6.14314 5.06902 6.23104 4.98111C6.31895 4.8932 6.43818 4.84382 6.5625 4.84382C6.68682 4.84382 6.80605 4.8932 6.89396 4.98111C6.98186 5.06902 7.03125 5.18825 7.03125 5.31257V9.68757C7.03125 9.81189 6.98186 9.93112 6.89396 10.019C6.80605 10.1069 6.68682 10.1563 6.5625 10.1563C6.43818 10.1563 6.31895 10.1069 6.23104 10.019C6.14314 9.93112 6.09375 9.81189 6.09375 9.68757V7.96882H4.21875V9.68757C4.21875 9.81189 4.16936 9.93112 4.08146 10.019C3.99355 10.1069 3.87432 10.1563 3.75 10.1563C3.62568 10.1563 3.50645 10.1069 3.41854 10.019C3.33064 9.93112 3.28125 9.81189 3.28125 9.68757V5.31257C3.28125 5.18825 3.33064 5.06902 3.41854 4.98111C3.50645 4.8932 3.62568 4.84382 3.75 4.84382ZM9.21875 9.21632V5.78382C9.82187 5.79319 10.3225 5.83444 10.7 6.01069C10.915 6.11069 11.0794 6.25257 11.1969 6.46319C11.3181 6.68132 11.4062 7.00632 11.4062 7.50007C11.4062 7.99382 11.3175 8.31882 11.1969 8.53757C11.0794 8.74757 10.9156 8.88882 10.7 8.98944C10.3225 9.16569 9.82187 9.20694 9.21875 9.21632ZM12.3438 7.50007C12.3438 6.90007 12.2369 6.40507 12.0162 6.00757C11.8091 5.6337 11.4866 5.33685 11.0969 5.16132C10.4156 4.84319 9.545 4.84382 8.81 4.84382H8.75C8.62568 4.84382 8.50645 4.8932 8.41854 4.98111C8.33064 5.06902 8.28125 5.18825 8.28125 5.31257V9.68757C8.28125 9.94632 8.49125 10.1563 8.75 10.1563H8.81C9.545 10.1563 10.4156 10.1563 11.0969 9.83882C11.4864 9.66318 11.8086 9.36634 12.0156 8.99257C12.2369 8.59507 12.3438 8.10007 12.3438 7.50007Z" fill="white"/>
</svg>
