<svg width="24" height="24" viewBox="0 0 24 24" fill="none" xmlns="http://www.w3.org/2000/svg">
	<path fill-rule="evenodd" clip-rule="evenodd" d="M12 8.24998C11.0054 8.24998 10.0516 8.64507 9.34835 9.34833C8.64509 10.0516 8.25 11.0054 8.25 12C8.25 12.9945 8.64509 13.9484 9.34835 14.6516C10.0516 15.3549 11.0054 15.75 12 15.75C12.9946 15.75 13.9484 15.3549 14.6517 14.6516C15.3549 13.9484 15.75 12.9945 15.75 12C15.75 11.0054 15.3549 10.0516 14.6517 9.34833C13.9484 8.64507 12.9946 8.24998 12 8.24998ZM9.75 12C9.75 11.4032 9.98705 10.831 10.409 10.409C10.831 9.98704 11.4033 9.74998 12 9.74998C12.5967 9.74998 13.169 9.98704 13.591 10.409C14.0129 10.831 14.25 11.4032 14.25 12C14.25 12.5967 14.0129 13.169 13.591 13.591C13.169 14.0129 12.5967 14.25 12 14.25C11.4033 14.25 10.831 14.0129 10.409 13.591C9.98705 13.169 9.75 12.5967 9.75 12Z" fill="white"/>
	<path fill-rule="evenodd" clip-rule="evenodd" d="M11.975 1.24998C11.53 1.24998 11.159 1.24998 10.855 1.26998C10.5443 1.28292 10.2378 1.34712 9.94802 1.45998C9.61427 1.59807 9.31099 1.80056 9.05551 2.05587C8.80002 2.31119 8.59733 2.61433 8.45902 2.94798C8.31402 3.29798 8.27502 3.66798 8.25902 4.06998C8.25742 4.21701 8.2185 4.36121 8.14591 4.48907C8.07332 4.61693 7.96944 4.72426 7.84402 4.80098C7.7149 4.87149 7.56998 4.90802 7.42287 4.90714C7.27576 4.90627 7.13129 4.86802 7.00302 4.79598C6.64702 4.60798 6.30702 4.45698 5.93102 4.40698C5.57296 4.35989 5.20914 4.38378 4.86031 4.47729C4.51149 4.5708 4.1845 4.7321 3.89802 4.95198C3.65579 5.14686 3.44733 5.38032 3.28102 5.64298C3.11102 5.89699 2.92502 6.21799 2.70302 6.60298L2.67802 6.64698C2.45502 7.03198 2.27002 7.35298 2.13602 7.62698C1.99602 7.91298 1.88602 8.19498 1.84602 8.50698C1.75062 9.22998 1.9463 9.96125 2.39002 10.54C2.62102 10.841 2.92202 11.06 3.26202 11.274C3.38878 11.3489 3.49439 11.4549 3.56891 11.5819C3.64344 11.7089 3.68442 11.8528 3.68802 12C3.68442 12.1472 3.64344 12.2911 3.56891 12.4181C3.49439 12.5451 3.38878 12.651 3.26202 12.726C2.92202 12.94 2.62202 13.159 2.39002 13.46C2.17014 13.7465 2.00883 14.0735 1.91532 14.4223C1.82181 14.7711 1.79792 15.1349 1.84502 15.493C1.88602 15.805 1.99502 16.087 2.13502 16.373C2.27002 16.647 2.45502 16.968 2.67802 17.353L2.70302 17.397C2.92502 17.782 3.11102 18.103 3.28102 18.357C3.45802 18.62 3.64802 18.857 3.89802 19.047C4.18443 19.267 4.51138 19.4285 4.86021 19.5222C5.20903 19.6159 5.5729 19.6399 5.93102 19.593C6.30702 19.543 6.64702 19.393 7.00302 19.204C7.13114 19.132 7.27544 19.0938 7.42237 19.093C7.56931 19.0921 7.71405 19.1286 7.84302 19.199C7.96914 19.2751 8.07367 19.3823 8.14666 19.5102C8.21966 19.6382 8.25868 19.7827 8.26002 19.93C8.27502 20.332 8.31402 20.702 8.46002 21.052C8.59811 21.3857 8.80059 21.689 9.05591 21.9445C9.31122 22.2 9.61436 22.4027 9.94802 22.541C10.238 22.661 10.538 22.708 10.855 22.729C11.159 22.75 11.53 22.75 11.975 22.75H12.025C12.47 22.75 12.841 22.75 13.145 22.73C13.463 22.708 13.762 22.661 14.052 22.54C14.3858 22.4019 14.689 22.1994 14.9445 21.9441C15.2 21.6888 15.4027 21.3856 15.541 21.052C15.686 20.702 15.725 20.332 15.741 19.93C15.7425 19.7828 15.7813 19.6384 15.8539 19.5103C15.9265 19.3823 16.0305 19.2748 16.156 19.198C16.2852 19.1276 16.4302 19.0913 16.5773 19.0923C16.7244 19.0934 16.8688 19.1318 16.997 19.204C17.353 19.392 17.693 19.543 18.069 19.592C18.792 19.6874 19.5233 19.4917 20.102 19.048C20.352 18.856 20.542 18.62 20.719 18.357C20.889 18.103 21.075 17.782 21.297 17.397L21.322 17.353C21.545 16.968 21.73 16.647 21.864 16.373C22.004 16.087 22.114 15.804 22.154 15.493C22.2494 14.77 22.0537 14.0387 21.61 13.46C21.379 13.159 21.078 12.94 20.738 12.726C20.6113 12.651 20.5056 12.5451 20.4311 12.4181C20.3566 12.2911 20.3156 12.1472 20.312 12C20.312 11.722 20.464 11.446 20.738 11.274C21.078 11.06 21.378 10.841 21.61 10.54C21.8299 10.2535 21.9912 9.92651 22.0847 9.57769C22.1782 9.22887 22.2021 8.86504 22.155 8.50698C22.1074 8.19969 22.0094 7.90237 21.865 7.62698C21.6943 7.29473 21.5132 6.96791 21.322 6.64698L21.297 6.60298C21.1143 6.27707 20.9216 5.95692 20.719 5.64298C20.5527 5.3806 20.3442 5.14747 20.102 4.95298C19.8156 4.73293 19.4887 4.57144 19.1398 4.47776C18.791 4.38408 18.4271 4.36003 18.069 4.40698C17.693 4.45698 17.353 4.60698 16.997 4.79598C16.8689 4.86784 16.7246 4.90599 16.5777 4.90687C16.4307 4.90774 16.286 4.87131 16.157 4.80098C16.0312 4.7245 15.9269 4.61728 15.854 4.4894C15.7811 4.36153 15.7418 4.21719 15.74 4.06998C15.725 3.66798 15.686 3.29798 15.54 2.94798C15.4019 2.61423 15.1994 2.31096 14.9441 2.05547C14.6888 1.79999 14.3857 1.5973 14.052 1.45898C13.762 1.33898 13.462 1.29198 13.145 1.27098C12.841 1.24998 12.47 1.24998 12.025 1.24998H11.975ZM10.522 2.84498C10.599 2.81298 10.716 2.78398 10.957 2.76698C11.204 2.74998 11.524 2.74998 12 2.74998C12.476 2.74998 12.796 2.74998 13.043 2.76698C13.284 2.78398 13.401 2.81298 13.478 2.84498C13.785 2.97198 14.028 3.21498 14.155 3.52198C14.195 3.61798 14.228 3.76898 14.241 4.12598C14.271 4.91798 14.68 5.68098 15.406 6.09998C16.132 6.51998 16.997 6.49198 17.698 6.12198C18.014 5.95499 18.161 5.90798 18.265 5.89498C18.5936 5.85157 18.9259 5.94041 19.189 6.14198C19.255 6.19299 19.339 6.27998 19.474 6.47998C19.613 6.68598 19.773 6.96298 20.011 7.37498C20.249 7.78698 20.408 8.06498 20.517 8.28698C20.624 8.50398 20.657 8.61998 20.667 8.70298C20.7104 9.03155 20.6216 9.36391 20.42 9.62698C20.356 9.70998 20.242 9.81398 19.94 10.004C19.268 10.426 18.812 11.162 18.812 12C18.812 12.838 19.268 13.574 19.94 13.996C20.242 14.186 20.356 14.29 20.42 14.373C20.622 14.636 20.71 14.968 20.667 15.297C20.657 15.38 20.623 15.497 20.517 15.713C20.408 15.936 20.249 16.213 20.011 16.625C19.773 17.037 19.612 17.314 19.474 17.52C19.339 17.72 19.255 17.807 19.189 17.858C18.9259 18.0596 18.5936 18.1484 18.265 18.105C18.161 18.092 18.015 18.045 17.698 17.878C16.998 17.508 16.132 17.48 15.406 17.899C14.68 18.319 14.271 19.082 14.241 19.874C14.228 20.231 14.195 20.382 14.155 20.478C14.0922 20.6298 14.0001 20.7677 13.8839 20.8839C13.7677 21 13.6298 21.0922 13.478 21.155C13.401 21.187 13.284 21.216 13.043 21.233C12.796 21.25 12.476 21.25 12 21.25C11.524 21.25 11.204 21.25 10.957 21.233C10.716 21.216 10.599 21.187 10.522 21.155C10.3702 21.0922 10.2323 21 10.1161 20.8839C9.99997 20.7677 9.90784 20.6298 9.84502 20.478C9.80502 20.382 9.77202 20.231 9.75902 19.874C9.72902 19.082 9.32002 18.319 8.59402 17.9C7.86802 17.48 7.00302 17.508 6.30202 17.878C5.98602 18.045 5.83902 18.092 5.73502 18.105C5.40645 18.1484 5.0741 18.0596 4.81102 17.858C4.74502 17.807 4.66102 17.72 4.52602 17.52C4.33793 17.2272 4.15885 16.9287 3.98902 16.625C3.75102 16.213 3.59202 15.935 3.48302 15.713C3.37602 15.496 3.34302 15.38 3.33302 15.297C3.2896 14.9684 3.37845 14.6361 3.58002 14.373C3.64402 14.29 3.75802 14.186 4.06002 13.996C4.73202 13.574 5.18802 12.838 5.18802 12C5.18802 11.162 4.73202 10.426 4.06002 10.004C3.75802 9.81398 3.64402 9.70998 3.58002 9.62698C3.37845 9.36391 3.2896 9.03155 3.33302 8.70298C3.34302 8.61998 3.37702 8.50298 3.48302 8.28698C3.59202 8.06398 3.75102 7.78698 3.98902 7.37498C4.22702 6.96298 4.38802 6.68598 4.52602 6.47998C4.66102 6.27998 4.74502 6.19299 4.81102 6.14198C5.0741 5.94041 5.40645 5.85157 5.73502 5.89498C5.83902 5.90798 5.98502 5.95499 6.30202 6.12198C7.00202 6.49198 7.86802 6.51998 8.59402 6.09998C9.32002 5.68098 9.72902 4.91798 9.75902 4.12598C9.77202 3.76898 9.80502 3.61798 9.84502 3.52198C9.97202 3.21498 10.215 2.97198 10.522 2.84498Z" fill="white"/>
</svg>
