<svg width="24" height="24" viewBox="0 0 24 24" fill="none" xmlns="http://www.w3.org/2000/svg">
	<g clip-path="url(#clip0_3_185)">
		<path d="M12 1.33333C9.89032 1.33333 7.82803 1.95892 6.0739 3.13099C4.31978 4.30305 2.9526 5.96896 2.14527 7.91804C1.33793 9.86712 1.1267 12.0118 1.53827 14.081C1.94985 16.1501 2.96575 18.0507 4.45751 19.5425C5.94927 21.0342 7.84989 22.0501 9.91902 22.4617C11.9882 22.8733 14.1329 22.662 16.0819 21.8547C18.031 21.0474 19.6969 19.6802 20.869 17.9261C22.0411 16.172 22.6667 14.1097 22.6667 12C22.6667 9.17102 21.5428 6.45791 19.5425 4.45752C17.5421 2.45713 14.829 1.33333 12 1.33333ZM12.04 13.12C11.9274 13.1209 11.8157 13.0995 11.7114 13.057C11.6071 13.0145 11.5122 12.9518 11.4323 12.8724C11.3523 12.7931 11.2889 12.6987 11.2456 12.5948C11.2023 12.4908 11.18 12.3793 11.18 12.2667V5.76666C11.18 5.53857 11.2706 5.31983 11.4319 5.15855C11.5932 4.99727 11.8119 4.90666 12.04 4.90666C12.2681 4.90666 12.4868 4.99727 12.6481 5.15855C12.8094 5.31983 12.9 5.53857 12.9 5.76666V12.2667C12.9 12.3793 12.8777 12.4908 12.8344 12.5948C12.7911 12.6987 12.7276 12.7931 12.6477 12.8724C12.5677 12.9518 12.4729 13.0145 12.3686 13.057C12.2643 13.0995 12.1526 13.1209 12.04 13.12ZM12 18.5267C10.5959 18.5433 9.22316 18.1107 8.08223 17.2921C6.9413 16.4735 6.09186 15.3116 5.65786 13.9761C5.22387 12.6407 5.22804 11.2014 5.66977 9.86849C6.1115 8.53554 6.96766 7.37866 8.11332 6.56666C8.31286 6.42443 8.56034 6.36638 8.80232 6.40505C9.0443 6.44371 9.26137 6.57599 9.40665 6.77333C9.47758 6.87078 9.52851 6.9813 9.55652 7.09853C9.58453 7.21576 9.58906 7.33737 9.56985 7.45636C9.55064 7.57535 9.50807 7.68936 9.44458 7.79181C9.38111 7.89427 9.29797 7.98315 9.19998 8.05333C8.54101 8.53728 8.01698 9.18196 7.67785 9.9259C7.33872 10.6698 7.1958 11.4882 7.26272 12.3031C7.32963 13.1179 7.60414 13.9021 8.06009 14.5807C8.51603 15.2594 9.13821 15.8099 9.86731 16.1799C10.5964 16.5499 11.4081 16.7269 12.225 16.6942C13.042 16.6614 13.8369 16.42 14.5341 15.9928C15.2312 15.5657 15.8073 14.9671 16.2075 14.2541C16.6076 13.5412 16.8185 12.7376 16.82 11.92C16.8177 11.1667 16.635 10.4249 16.287 9.75676C15.939 9.08864 15.436 8.51365 14.82 8.07999C14.6303 7.93031 14.5077 7.71157 14.4789 7.47166C14.4502 7.23176 14.5177 6.99024 14.6667 6.79999C14.8139 6.60475 15.0319 6.47511 15.2738 6.43896C15.5157 6.4028 15.7621 6.46302 15.96 6.60666C17.0937 7.42796 17.9362 8.58911 18.3653 9.92163C18.7945 11.2542 18.7879 12.6888 18.3465 14.0173C17.9051 15.3458 17.052 16.4992 15.9108 17.31C14.7696 18.1209 13.3998 18.547 12 18.5267Z" fill="#E78787"/>
	</g>
	<defs>
		<clipPath id="clip0_3_185">
			<rect width="24" height="24" fill="white"/>
		</clipPath>
	</defs>
</svg>
